HIERARCHY
ROOT joint_Root
{
	OFFSET 0.0 0.0 0.0
	CHANNELS 6 Xposition Yposition Zposition Zrotation Xrotation Yrotation 
	JOINT Hips
	{
		OFFSET -0.726466 93.3139 -2.00062
		CHANNELS 6 Xposition Yposition Zposition Zrotation Xrotation Yrotation 
		JOINT Spine
		{
			OFFSET 15.7357 0.0 0.0
			CHANNELS 6 Xposition Yposition Zposition Zrotation Xrotation Yrotation 
			JOINT Chest
			{
				OFFSET 8.98455 -0.406207 0.0
				CHANNELS 6 Xposition Yposition Zposition Zrotation Xrotation Yrotation 
				JOINT Neck
				{
					OFFSET 16.3773 0.0 0.0
					CHANNELS 6 Xposition Yposition Zposition Zrotation Xrotation Yrotation 
					JOINT Head
					{
						OFFSET 6.45672 0.0 0.0
						CHANNELS 6 Xposition Yposition Zposition Zrotation Xrotation Yrotation 
						End Site
						{
							OFFSET 0.0 0.0 0.0
						}
					}
				}
				JOINT Shoulder_L
				{
					OFFSET 12.9942 -0.242716 4.98039
					CHANNELS 6 Xposition Yposition Zposition Zrotation Xrotation Yrotation 
					JOINT UpperArm_L
					{
						OFFSET 5.34809 0.0 0.0
						CHANNELS 6 Xposition Yposition Zposition Zrotation Xrotation Yrotation 
						JOINT LowerArm_L
						{
							OFFSET 24.3286 1.87007e-05 0.0
							CHANNELS 6 Xposition Yposition Zposition Zrotation Xrotation Yrotation 
							JOINT Hand_L
							{
								OFFSET 22.2916 0.0 0.0
								CHANNELS 6 Xposition Yposition Zposition Zrotation Xrotation Yrotation 
								End Site
								{
									OFFSET 0.0 0.0 0.0
								}
							}
						}
					}
				}
				JOINT Shoulder_R
				{
					OFFSET 12.9945 -0.242716 -4.98039
					CHANNELS 6 Xposition Yposition Zposition Zrotation Xrotation Yrotation 
					JOINT UpperArm_R
					{
						OFFSET -5.34813 0.0 0.0
						CHANNELS 6 Xposition Yposition Zposition Zrotation Xrotation Yrotation 
						JOINT LowerArm_R
						{
							OFFSET -24.3289 0.000322201 0.0
							CHANNELS 6 Xposition Yposition Zposition Zrotation Xrotation Yrotation 
							JOINT Hand_R
							{
								OFFSET -22.2915 -0.000108084 0.0
								CHANNELS 6 Xposition Yposition Zposition Zrotation Xrotation Yrotation 
								End Site
								{
									OFFSET 0.0 0.0 0.0
								}
							}
						}
					}
				}
			}
		}
		JOINT UpperLeg_L
		{
			OFFSET -2.19248 -6.46944 0.0
			CHANNELS 6 Xposition Yposition Zposition Zrotation Xrotation Yrotation 
			JOINT LowerLeg_L
			{
				OFFSET 39.0811 0.0 -1.23785e-05
				CHANNELS 6 Xposition Yposition Zposition Zrotation Xrotation Yrotation 
				JOINT Foot_L
				{
					OFFSET 40.9854 0.0 -1.26872e-05
					CHANNELS 6 Xposition Yposition Zposition Zrotation Xrotation Yrotation 
					JOINT Toes_L
					{
						OFFSET 11.7543 0.0 0.0
						CHANNELS 6 Xposition Yposition Zposition Zrotation Xrotation Yrotation 
						End Site
						{
							OFFSET 0.0 0.0 0.0
						}
					}
				}
			}
		}
		JOINT UpperLeg_R
		{
			OFFSET -2.19251 6.46944 0.0
			CHANNELS 6 Xposition Yposition Zposition Zrotation Xrotation Yrotation 
			JOINT LowerLeg_R
			{
				OFFSET -39.0811 -0.00228153 -0.0401928
				CHANNELS 6 Xposition Yposition Zposition Zrotation Xrotation Yrotation 
				JOINT Foot_R
				{
					OFFSET -40.9854 0.0 0.0
					CHANNELS 6 Xposition Yposition Zposition Zrotation Xrotation Yrotation 
					JOINT Toes_R
					{
						OFFSET -11.7543 0.0 0.0
						CHANNELS 6 Xposition Yposition Zposition Zrotation Xrotation Yrotation 
						End Site
						{
							OFFSET 0.0 0.0 0.0
						}
					}
				}
			}
		}
	}
}
MOTION
Frames:	4
Frame Time:	0.0333333
0.000000 0.000000 0.000000 0.000000 0.000000 -0.000000 -0.681700 92.349500 -0.898272 88.167800 -0.388332 2.929430 15.735700 0.000005 -0.000001 82.736300 85.540200 -81.973300 8.984550 -0.406207 -0.000000 1.090530 -1.171720 1.535860 16.377300 -0.000001 -0.000001 2.367940 -2.493840 0.357192 6.456720 -0.000001 -0.000000 4.081690 -2.168750 -3.267190 12.994200 -0.242716 4.980390 -90.423100 1.368580 -72.817600 5.348090 -0.000007 -0.000001 -67.650800 38.498400 -13.380200 24.328600 0.000019 0.000005 1.655090 3.639900 -24.469800 22.291600 -0.000001 0.000005 5.595070 5.483140 -5.869010 12.994500 -0.242716 -4.980390 88.162400 5.902520 -72.672700 -5.348130 -0.000001 -0.000004 -64.281800 40.138300 -16.800500 -24.328900 0.000322 -0.000009 1.820210 6.269020 -16.235300 -22.291500 -0.000108 -0.000004 6.654330 5.386270 -2.496280 -2.192480 -6.469440 -0.000000 -175.798000 -7.004660 -3.591170 39.081100 -0.000007 -0.000012 -0.096168 0.232137 22.502900 40.985400 -0.000006 -0.000013 -0.201043 3.285730 -66.185000 11.754300 -0.000000 0.000003 -0.000034 -0.000405 -16.593400 -2.192510 6.469440 -0.000001 179.668000 15.708800 179.874000 -39.081100 -0.002282 -0.040193 -0.026931 0.089801 18.619100 -40.985400 0.000008 0.000006 3.499500 6.526560 -65.986300 -11.754300 -0.000006 -0.000006 -0.005403 -0.065314 -19.230900
0.000000 0.000000 0.000000 0.000000 0.000000 -0.000000 -0.669163 92.346700 -0.917255 88.152200 -0.408053 2.948270 15.735700 0.000005 -0.000001 82.548300 85.516100 -81.739700 8.984550 -0.406207 -0.000000 1.135310 -1.209300 1.627920 16.377300 -0.000001 -0.000001 2.300010 -2.577400 0.379926 6.456720 -0.000001 -0.000000 4.053000 -2.135880 -3.395240 12.994200 -0.242716 4.980390 -90.495700 1.623040 -73.013300 5.348090 -0.000007 -0.000001 -67.337700 36.864700 -12.950400 24.328600 0.000019 0.000005 2.437870 4.967140 -26.178700 22.291600 -0.000001 0.000005 4.261710 5.477910 -5.664440 12.994500 -0.242716 -4.980390 88.189300 5.805340 -72.643900 -5.348130 -0.000001 -0.000004 -64.378900 40.068700 -16.842400 -24.328900 0.000322 -0.000009 1.804880 6.216720 -16.233600 -22.291500 -0.000108 -0.000004 6.637330 5.387210 -2.526200 -2.192480 -6.469440 -0.000000 -175.792000 -7.012000 -3.614380 39.081100 -0.000007 -0.000012 -0.095928 0.230983 22.553300 40.985400 -0.000006 -0.000013 -0.196332 3.256820 -66.192800 11.754300 -0.000000 0.000003 -0.000032 -0.000383 -16.592500 -2.192510 6.469440 -0.000001 179.674000 15.691900 179.863000 -39.081100 -0.002282 -0.040193 -0.026802 0.089235 18.654900 -40.985400 0.000008 0.000006 3.541810 6.533210 -65.997300 -11.754300 -0.000006 -0.000006 -0.005447 -0.065731 -19.247900
0.000000 0.000000 0.000000 0.000000 0.000000 -0.000000 -0.663224 92.350000 -0.954011 88.142200 -0.413655 2.944990 15.735700 0.000005 -0.000001 82.580200 85.504400 -81.729100 8.984550 -0.406207 -0.000000 1.159700 -1.209650 1.713150 16.377300 -0.000001 -0.000001 2.184880 -2.660370 0.374858 6.456720 -0.000001 -0.000000 4.061450 -2.193350 -3.372150 12.994200 -0.242716 4.980390 -90.632700 2.068000 -72.984600 5.348090 -0.000007 -0.000001 -65.874600 34.582300 -13.276000 24.328600 0.000019 0.000005 3.263170 5.990000 -28.647900 22.291600 -0.000001 0.000005 2.292010 5.467190 -5.263310 12.994500 -0.242716 -4.980390 88.215100 5.715290 -72.624000 -5.348130 -0.000001 -0.000004 -64.502000 39.992700 -16.813800 -24.328900 0.000322 -0.000009 1.775510 6.095750 -16.282400 -22.291500 -0.000108 -0.000004 6.644680 5.385970 -2.487010 -2.192480 -6.469440 -0.000000 -175.780000 -7.036940 -3.639220 39.081100 -0.000007 -0.000012 -0.097345 0.234375 22.555000 40.985400 -0.000006 -0.000013 -0.186407 3.295640 -66.172900 11.754300 -0.000000 0.000003 -0.000031 -0.000374 -16.592200 -2.192510 6.469440 -0.000001 179.686000 15.683800 179.832000 -39.081100 -0.002282 -0.040193 -0.027287 0.090697 18.650100 -40.985400 0.000008 0.000006 3.527400 6.538150 -65.963300 -11.754300 -0.000006 -0.000006 -0.005379 -0.065091 -19.221800
0.000000 0.000000 0.000000 0.000000 0.000000 -0.000000 -0.669857 92.353300 -1.001930 88.134600 -0.399520 2.937120 15.735700 0.000005 -0.000001 82.905300 85.496000 -82.013600 8.984550 -0.406207 -0.000000 1.183030 -1.163300 1.794140 16.377300 -0.000001 -0.000001 2.178600 -2.750950 0.363333 6.456720 -0.000001 -0.000000 3.887590 -2.399440 -3.297230 12.994200 -0.242716 4.980390 -90.761000 2.456290 -72.781000 5.348090 -0.000007 -0.000001 -63.671600 31.204600 -14.382200 24.328600 0.000019 0.000005 4.117230 6.685170 -31.726400 22.291600 -0.000001 0.000005 1.262700 5.456420 -4.870480 12.994500 -0.242716 -4.980390 88.250800 5.593790 -72.604500 -5.348130 -0.000001 -0.000004 -64.652300 39.952000 -16.742100 -24.328900 0.000322 -0.000009 1.765200 6.033590 -16.350100 -22.291500 -0.000108 -0.000004 6.536190 5.387720 -2.542410 -2.192480 -6.469440 -0.000000 -175.775000 -7.028530 -3.698730 39.081100 -0.000007 -0.000012 -0.096716 0.232663 22.572200 40.985400 -0.000006 -0.000013 -0.188811 3.292700 -66.139200 11.754300 -0.000000 0.000003 -0.000032 -0.000379 -16.592400 -2.192510 6.469440 -0.000001 179.702000 15.725000 179.792000 -39.081100 -0.002282 -0.040193 -0.028148 0.093286 18.642700 -40.985400 0.000008 0.000006 3.472250 6.570880 -65.917300 -11.754300 -0.000006 -0.000006 -0.005490 -0.066133 -19.264300
